<svg xmlns="http://www.w3.org/2000/svg" width="118" height="40" viewBox="0 0 118 40" fill="none"><g clip-path="url(#clip0_6359_1273)"><path d="M0 13.894H3.35194V15.2306C4.11525 14.2452 5.251 13.6411 6.63013 13.6411C8.378 13.6411 9.68706 14.3471 10.4246 15.6346C11.2616 14.4226 12.6666 13.6411 14.2669 13.6411C17.3976 13.6411 18.9501 15.559 18.9501 18.8135V26.508H15.5244V19.2666C15.5244 17.5752 14.8828 16.5935 13.3819 16.5935C12.0987 16.5935 11.1658 17.5034 11.1658 19.6215V26.508H7.74006V19.2666C7.74006 17.5752 7.09844 16.5935 5.59763 16.5935C4.31806 16.5935 3.38144 17.5034 3.38144 19.6215V26.508H0V13.894Z" fill="white"></path><path d="M24.1972 25.953L19.2928 13.894H22.8402L25.8713 21.664L28.707 13.894H32.2065L25.0601 32.3374H21.6823L24.1972 25.953Z" fill="white"></path><path d="M33.2134 8.09113H36.6391V23.1516H43.1438V26.508H33.2134V8.09113Z" fill="white"></path><path d="M43.4166 20.1991C43.4166 15.7327 46.6211 13.6411 49.4051 13.6411C51.0055 13.6411 52.2629 14.2452 53.0779 15.1286V13.894H56.4556V26.508H53.0779V25.096C52.2629 26.0814 50.9576 26.761 49.3572 26.761C46.7464 26.761 43.4166 24.6429 43.4166 20.1991ZM53.1738 20.1765C53.1738 18.3076 51.8426 16.7974 50.0209 16.7974C48.1993 16.7974 46.7206 18.2359 46.7206 20.1765C46.7206 22.1171 48.1514 23.582 50.0209 23.582C51.8905 23.582 53.1738 22.0416 53.1738 20.1765Z" fill="white"></path><path d="M57.2115 13.8789H60.5893L63.1042 21.9396L65.9104 13.894H69.2623L71.8989 21.9396L74.5612 13.894H77.9132L73.525 26.508H70.2727L67.5144 18.4851L64.6308 26.508H61.3526L57.2115 13.8789Z" fill="white"></path><path d="M96.5868 8.09113H100.012V23.1516H106.517V26.508H96.5868V8.09113Z" fill="#F6871F"></path><path d="M107.328 8.09113H118V11.4438H110.754V15.5817H118V18.9382H110.754V23.1516H118V26.508H107.328V8.09113Z" fill="#F6871F"></path><path d="M87.5594 23.2535C84.2591 23.2535 81.7921 20.6031 81.7921 17.2996C81.7921 16.4501 81.9507 15.6497 82.2383 14.9248C82.2162 14.9437 82.1978 14.9663 82.1757 14.9852C78.2522 18.84 80.402 25.5981 85.7525 26.5911C86.3499 26.7006 86.9768 26.761 87.6331 26.761C91.2063 26.761 94.2116 24.6429 95.7899 21.513L92.6592 19.8216C91.7484 21.7886 90.0226 23.2535 87.5594 23.2535Z" fill="#F6871F"></path><mask id="mask0_6359_1273" style="mask-type:luminance" maskUnits="userSpaceOnUse" x="80" y="14" width="16" height="13"><path d="M92.6592 19.8216C91.7484 21.7886 90.0226 23.2535 87.5594 23.2535C84.2591 23.2535 81.7921 20.6031 81.7921 17.2996C81.7921 16.4501 81.9507 15.6497 82.2383 14.9248C82.2162 14.9437 82.1978 14.9663 82.1757 14.9852C78.2522 18.84 80.402 25.5981 85.7525 26.5911C86.3499 26.7006 86.9768 26.761 87.6331 26.761C91.2063 26.761 94.2116 24.6429 95.7899 21.513L92.6592 19.8216Z" fill="white"></path></mask><g mask="url(#mask0_6359_1273)"><path d="M87.9818 22.9966L87.9758 23.0027L87.9818 23.0088L87.9877 23.0027L87.9818 22.9966Z" fill="#005595"></path><path d="M89.3929 23.1372C89.3993 23.1372 89.4044 23.1319 89.4044 23.1255C89.4044 23.1191 89.3993 23.1138 89.3929 23.1138C89.3866 23.1138 89.3815 23.1191 89.3815 23.1255C89.3815 23.1319 89.3866 23.1372 89.3929 23.1372Z" fill="#005595"></path><path d="M88.7949 23.4385C88.8092 23.4385 88.8209 23.4267 88.8209 23.4121C88.8209 23.3975 88.8092 23.3857 88.7949 23.3857C88.7806 23.3857 88.7689 23.3975 88.7689 23.4121C88.7689 23.4267 88.7806 23.4385 88.7949 23.4385Z" fill="#005595"></path><path d="M88.1463 23.582C88.1688 23.582 88.1871 23.5634 88.1871 23.5405C88.1871 23.5176 88.1688 23.499 88.1463 23.499C88.1237 23.499 88.1055 23.5176 88.1055 23.5405C88.1055 23.5634 88.1237 23.582 88.1463 23.582Z" fill="#005595"></path><path d="M87.4825 23.548C87.5112 23.548 87.5344 23.5244 87.5344 23.4952C87.5344 23.466 87.5112 23.4423 87.4825 23.4423C87.4538 23.4423 87.4305 23.466 87.4305 23.4952C87.4305 23.5244 87.4538 23.548 87.4825 23.548Z" fill="#005595"></path><path d="M86.8555 23.3404C86.8842 23.3404 86.9075 23.3167 86.9075 23.2875C86.9075 23.2583 86.8842 23.2346 86.8555 23.2346C86.8268 23.2346 86.8036 23.2583 86.8036 23.2875C86.8036 23.3167 86.8268 23.3404 86.8555 23.3404Z" fill="#005595"></path><path d="M86.2952 22.9411C86.3036 22.9411 86.3105 22.9341 86.3105 22.9255C86.3105 22.9169 86.3036 22.91 86.2952 22.91C86.2868 22.91 86.2799 22.9169 86.2799 22.9255C86.2799 22.9341 86.2868 22.9411 86.2952 22.9411Z" fill="#005595"></path><path d="M89.5593 23.6444L89.5571 23.6526L89.5654 23.6549L89.5675 23.6467L89.5593 23.6444Z" fill="#005595"></path><path d="M88.9577 23.9416C88.9661 23.9416 88.973 23.9346 88.973 23.926C88.973 23.9174 88.9661 23.9105 88.9577 23.9105C88.9492 23.9105 88.9424 23.9174 88.9424 23.926C88.9424 23.9346 88.9492 23.9416 88.9577 23.9416Z" fill="#005595"></path><path d="M88.3086 24.0992C88.325 24.0992 88.3383 24.0857 88.3383 24.069C88.3383 24.0523 88.325 24.0388 88.3086 24.0388C88.2922 24.0388 88.2789 24.0523 88.2789 24.069C88.2789 24.0857 88.2922 24.0992 88.3086 24.0992Z" fill="#005595"></path><path d="M87.6484 24.1144C87.673 24.1144 87.6929 24.0941 87.6929 24.069C87.6929 24.044 87.673 24.0237 87.6484 24.0237C87.6238 24.0237 87.6039 24.044 87.6039 24.069C87.6039 24.0941 87.6238 24.1144 87.6484 24.1144Z" fill="#005595"></path><path d="M86.9991 23.9898C87.0337 23.9898 87.0618 23.9611 87.0618 23.9256C87.0618 23.8902 87.0337 23.8614 86.9991 23.8614C86.9645 23.8614 86.9364 23.8902 86.9364 23.9256C86.9364 23.9611 86.9645 23.9898 86.9991 23.9898Z" fill="#005595"></path><path d="M86.3945 23.7293C86.4372 23.7293 86.4719 23.6938 86.4719 23.65C86.4719 23.6062 86.4372 23.5707 86.3945 23.5707C86.3517 23.5707 86.317 23.6062 86.317 23.65C86.317 23.6938 86.3517 23.7293 86.3945 23.7293Z" fill="#005595"></path><path d="M85.8595 23.3479C85.9104 23.3479 85.9517 23.3057 85.9517 23.2535C85.9517 23.2014 85.9104 23.1591 85.8595 23.1591C85.8086 23.1591 85.7673 23.2014 85.7673 23.2535C85.7673 23.3057 85.8086 23.3479 85.8595 23.3479Z" fill="#005595"></path><path d="M85.4175 22.7892C85.4401 22.7892 85.4583 22.7706 85.4583 22.7476C85.4583 22.7247 85.4401 22.7061 85.4175 22.7061C85.395 22.7061 85.3767 22.7247 85.3767 22.7476C85.3767 22.7706 85.395 22.7892 85.4175 22.7892Z" fill="#005595"></path><path d="M89.12 24.4474C89.1243 24.4474 89.1279 24.4438 89.1279 24.4394C89.1279 24.4351 89.1243 24.4315 89.12 24.4315C89.1156 24.4315 89.1121 24.4351 89.1121 24.4394C89.1121 24.4438 89.1156 24.4474 89.12 24.4474Z" fill="#005595"></path><path d="M88.4749 24.6101C88.4855 24.6101 88.494 24.6013 88.494 24.5906C88.494 24.5799 88.4855 24.5712 88.4749 24.5712C88.4644 24.5712 88.4558 24.5799 88.4558 24.5906C88.4558 24.6013 88.4644 24.6101 88.4749 24.6101Z" fill="#005595"></path><path d="M87.8142 24.658C87.8347 24.658 87.8513 24.6411 87.8513 24.6203C87.8513 24.5994 87.8347 24.5825 87.8142 24.5825C87.7937 24.5825 87.7771 24.5994 87.7771 24.6203C87.7771 24.6411 87.7937 24.658 87.8142 24.658Z" fill="#005595"></path><path d="M87.158 24.5825C87.1867 24.5825 87.21 24.5589 87.21 24.5297C87.21 24.5005 87.1867 24.4768 87.158 24.4768C87.1293 24.4768 87.1061 24.5005 87.1061 24.5297C87.1061 24.5589 87.1293 24.5825 87.158 24.5825Z" fill="#005595"></path><path d="M86.5271 24.3937C86.5658 24.3937 86.5972 24.3616 86.5972 24.322C86.5972 24.2824 86.5658 24.2503 86.5271 24.2503C86.4884 24.2503 86.457 24.2824 86.457 24.322C86.457 24.3616 86.4884 24.3937 86.5271 24.3937Z" fill="#005595"></path><path d="M85.9409 24.0879C85.9877 24.0879 86.0257 24.049 86.0257 24.0011C86.0257 23.9531 85.9877 23.9142 85.9409 23.9142C85.894 23.9142 85.8561 23.9531 85.8561 24.0011C85.8561 24.049 85.894 24.0879 85.9409 24.0879Z" fill="#005595"></path><path d="M85.4247 23.684C85.4817 23.684 85.5279 23.6366 85.5279 23.5782C85.5279 23.5199 85.4817 23.4725 85.4247 23.4725C85.3676 23.4725 85.3214 23.5199 85.3214 23.5782C85.3214 23.6366 85.3676 23.684 85.4247 23.684Z" fill="#005595"></path><path d="M84.9895 23.1856C85.0546 23.1856 85.1075 23.1315 85.1075 23.0648C85.1075 22.998 85.0546 22.9439 84.9895 22.9439C84.9243 22.9439 84.8715 22.998 84.8715 23.0648C84.8715 23.1315 84.9243 23.1856 84.9895 23.1856Z" fill="#005595"></path><path d="M84.6501 22.5626C84.6928 22.5626 84.7275 22.5271 84.7275 22.4833C84.7275 22.4395 84.6928 22.4041 84.6501 22.4041C84.6073 22.4041 84.5726 22.4395 84.5726 22.4833C84.5726 22.5271 84.6073 22.5626 84.6501 22.5626Z" fill="#005595"></path><path d="M88.6404 25.1268C88.6467 25.1268 88.6518 25.1216 88.6518 25.1152C88.6518 25.1087 88.6467 25.1035 88.6404 25.1035C88.634 25.1035 88.6289 25.1087 88.6289 25.1152C88.6289 25.1216 88.634 25.1268 88.6404 25.1268Z" fill="#005595"></path><path d="M87.9802 25.1941C87.9945 25.1941 88.0062 25.1823 88.0062 25.1677C88.0062 25.1531 87.9945 25.1413 87.9802 25.1413C87.9658 25.1413 87.9542 25.1531 87.9542 25.1677C87.9542 25.1823 87.9658 25.1941 87.9802 25.1941Z" fill="#005595"></path><path d="M87.3166 25.1564C87.3391 25.1564 87.3574 25.1378 87.3574 25.1148C87.3574 25.0919 87.3391 25.0733 87.3166 25.0733C87.294 25.0733 87.2758 25.0919 87.2758 25.1148C87.2758 25.1378 87.294 25.1564 87.3166 25.1564Z" fill="#005595"></path><path d="M86.6748 25.0167C86.7074 25.0167 86.7338 24.9896 86.7338 24.9563C86.7338 24.9229 86.7074 24.8959 86.6748 24.8959C86.6423 24.8959 86.6158 24.9229 86.6158 24.9563C86.6158 24.9896 86.6423 25.0167 86.6748 25.0167Z" fill="#005595"></path><path d="M86.0627 24.7751C86.1054 24.7751 86.1401 24.7396 86.1401 24.6958C86.1401 24.652 86.1054 24.6165 86.0627 24.6165C86.0199 24.6165 85.9852 24.652 85.9852 24.6958C85.9852 24.7396 86.0199 24.7751 86.0627 24.7751Z" fill="#005595"></path><path d="M85.4945 24.4353C85.5454 24.4353 85.5867 24.393 85.5867 24.3409C85.5867 24.2888 85.5454 24.2465 85.4945 24.2465C85.4436 24.2465 85.4023 24.2888 85.4023 24.3409C85.4023 24.393 85.4436 24.4353 85.4945 24.4353Z" fill="#005595"></path><path d="M84.9933 24.0124C85.0544 24.0124 85.1039 23.9617 85.1039 23.8992C85.1039 23.8366 85.0544 23.7859 84.9933 23.7859C84.9322 23.7859 84.8827 23.8366 84.8827 23.8992C84.8827 23.9617 84.9322 24.0124 84.9933 24.0124Z" fill="#005595"></path><path d="M84.5615 23.5103C84.6308 23.5103 84.6869 23.4528 84.6869 23.3819C84.6869 23.311 84.6308 23.2535 84.5615 23.2535C84.4923 23.2535 84.4362 23.311 84.4362 23.3819C84.4362 23.4528 84.4923 23.5103 84.5615 23.5103Z" fill="#005595"></path><path d="M84.215 22.9477C84.2923 22.9477 84.3551 22.8835 84.3551 22.8042C84.3551 22.725 84.2923 22.6608 84.215 22.6608C84.1376 22.6608 84.0748 22.725 84.0748 22.8042C84.0748 22.8835 84.1376 22.9477 84.215 22.9477Z" fill="#005595"></path><path d="M83.9608 22.3134C84.0341 22.3134 84.0935 22.2526 84.0935 22.1775C84.0935 22.1024 84.0341 22.0416 83.9608 22.0416C83.8874 22.0416 83.828 22.1024 83.828 22.1775C83.828 22.2526 83.8874 22.3134 83.9608 22.3134Z" fill="#005595"></path><path d="M83.806 21.5288C83.8124 21.5288 83.8175 21.5236 83.8175 21.5171C83.8175 21.5107 83.8124 21.5055 83.806 21.5055C83.7997 21.5055 83.7946 21.5107 83.7946 21.5171C83.7946 21.5236 83.7997 21.5288 83.806 21.5288Z" fill="#005595"></path><path d="M88.1464 25.7199C88.1548 25.7199 88.1617 25.7129 88.1617 25.7043C88.1617 25.6957 88.1548 25.6888 88.1464 25.6888C88.1379 25.6888 88.1311 25.6957 88.1311 25.7043C88.1311 25.7129 88.1379 25.7199 88.1464 25.7199Z" fill="#005595"></path><path d="M87.4823 25.7114C87.4987 25.7114 87.512 25.6979 87.512 25.6812C87.512 25.6645 87.4987 25.651 87.4823 25.651C87.4659 25.651 87.4526 25.6645 87.4526 25.6812C87.4526 25.6979 87.4659 25.7114 87.4823 25.7114Z" fill="#005595"></path><path d="M86.83 25.6132C86.8566 25.6132 86.8782 25.5912 86.8782 25.5641C86.8782 25.537 86.8566 25.515 86.83 25.515C86.8033 25.515 86.7817 25.537 86.7817 25.5641C86.7817 25.5912 86.8033 25.6132 86.83 25.6132Z" fill="#005595"></path><path d="M86.1991 25.4207C86.2357 25.4207 86.2654 25.3903 86.2654 25.3527C86.2654 25.3152 86.2357 25.2848 86.1991 25.2848C86.1624 25.2848 86.1327 25.3152 86.1327 25.3527C86.1327 25.3903 86.1624 25.4207 86.1991 25.4207Z" fill="#005595"></path><path d="M85.6016 25.1375C85.6464 25.1375 85.6828 25.1003 85.6828 25.0545C85.6828 25.0086 85.6464 24.9714 85.6016 24.9714C85.5568 24.9714 85.5205 25.0086 85.5205 25.0545C85.5205 25.1003 85.5568 25.1375 85.6016 25.1375Z" fill="#005595"></path><path d="M85.0522 24.7788C85.1072 24.7788 85.1518 24.7332 85.1518 24.6769C85.1518 24.6206 85.1072 24.575 85.0522 24.575C84.9972 24.575 84.9526 24.6206 84.9526 24.6769C84.9526 24.7332 84.9972 24.7788 85.0522 24.7788Z" fill="#005595"></path><path d="M84.5617 24.3371C84.6248 24.3371 84.676 24.2847 84.676 24.2201C84.676 24.1554 84.6248 24.103 84.5617 24.103C84.4986 24.103 84.4474 24.1554 84.4474 24.2201C84.4474 24.2847 84.4986 24.3371 84.5617 24.3371Z" fill="#005595"></path><path d="M84.1338 23.8388C84.2072 23.8388 84.2666 23.7779 84.2666 23.7028C84.2666 23.6278 84.2072 23.5669 84.1338 23.5669C84.0605 23.5669 84.0011 23.6278 84.0011 23.7028C84.0011 23.7779 84.0605 23.8388 84.1338 23.8388Z" fill="#005595"></path><path d="M83.7836 23.2762C83.8651 23.2762 83.9311 23.2086 83.9311 23.1252C83.9311 23.0418 83.8651 22.9742 83.7836 22.9742C83.7021 22.9742 83.6361 23.0418 83.6361 23.1252C83.6361 23.2086 83.7021 23.2762 83.7836 23.2762Z" fill="#005595"></path><path d="M83.5144 22.6684C83.602 22.6684 83.673 22.5957 83.673 22.506C83.673 22.4163 83.602 22.3437 83.5144 22.3437C83.4268 22.3437 83.3558 22.4163 83.3558 22.506C83.3558 22.5957 83.4268 22.6684 83.5144 22.6684Z" fill="#005595"></path><path d="M83.3301 22.0265C83.4238 22.0265 83.4998 21.9488 83.4998 21.8528C83.4998 21.7569 83.4238 21.6792 83.3301 21.6792C83.2365 21.6792 83.1605 21.7569 83.1605 21.8528C83.1605 21.9488 83.2365 22.0265 83.3301 22.0265Z" fill="#005595"></path><path d="M83.2379 21.2563C83.2787 21.2563 83.3117 21.2225 83.3117 21.1808C83.3117 21.1391 83.2787 21.1053 83.2379 21.1053C83.1972 21.1053 83.1642 21.1391 83.1642 21.1808C83.1642 21.2225 83.1972 21.2563 83.2379 21.2563Z" fill="#005595"></path><path d="M88.3125 26.2446C88.3168 26.2446 88.3204 26.241 88.3204 26.2366C88.3204 26.2322 88.3168 26.2286 88.3125 26.2286C88.3081 26.2286 88.3046 26.2322 88.3046 26.2366C88.3046 26.241 88.3081 26.2446 88.3125 26.2446Z" fill="#005595"></path><path d="M87.6484 26.2589C87.6607 26.2589 87.6706 26.2487 87.6706 26.2362C87.6706 26.2237 87.6607 26.2136 87.6484 26.2136C87.6361 26.2136 87.6261 26.2237 87.6261 26.2362C87.6261 26.2487 87.6361 26.2589 87.6484 26.2589Z" fill="#005595"></path><path d="M86.9885 26.1909C87.009 26.1909 87.0256 26.174 87.0256 26.1531C87.0256 26.1323 87.009 26.1154 86.9885 26.1154C86.968 26.1154 86.9514 26.1323 86.9514 26.1531C86.9514 26.174 86.968 26.1909 86.9885 26.1909Z" fill="#005595"></path><path d="M86.3468 26.0398C86.3775 26.0398 86.4024 26.0145 86.4024 25.9832C86.4024 25.9519 86.3775 25.9266 86.3468 25.9266C86.3161 25.9266 86.2911 25.9519 86.2911 25.9832C86.2911 26.0145 86.3161 26.0398 86.3468 26.0398Z" fill="#005595"></path><path d="M85.7306 25.8058C85.7693 25.8058 85.8006 25.7736 85.8006 25.734C85.8006 25.6944 85.7693 25.6623 85.7306 25.6623C85.6919 25.6623 85.6605 25.6944 85.6605 25.734C85.6605 25.7736 85.6919 25.8058 85.7306 25.8058Z" fill="#005595"></path><path d="M85.1481 25.4962C85.1969 25.4962 85.2366 25.4556 85.2366 25.4056C85.2366 25.3555 85.1969 25.3149 85.1481 25.3149C85.0992 25.3149 85.0596 25.3555 85.0596 25.4056C85.0596 25.4556 85.0992 25.4962 85.1481 25.4962Z" fill="#005595"></path><path d="M84.6134 25.1149C84.6725 25.1149 84.7203 25.0658 84.7203 25.0054C84.7203 24.9449 84.6725 24.8959 84.6134 24.8959C84.5544 24.8959 84.5065 24.9449 84.5065 25.0054C84.5065 25.0658 84.5544 25.1149 84.6134 25.1149Z" fill="#005595"></path><path d="M84.1303 24.6656C84.1976 24.6656 84.252 24.6098 84.252 24.541C84.252 24.4722 84.1976 24.4164 84.1303 24.4164C84.0631 24.4164 84.0087 24.4722 84.0087 24.541C84.0087 24.6098 84.0631 24.6656 84.1303 24.6656Z" fill="#005595"></path><path d="M83.7063 24.1634C83.7837 24.1634 83.8464 24.0992 83.8464 24.02C83.8464 23.9407 83.7837 23.8765 83.7063 23.8765C83.6289 23.8765 83.5662 23.9407 83.5662 24.02C83.5662 24.0992 83.6289 24.1634 83.7063 24.1634Z" fill="#005595"></path><path d="M83.3523 23.6047C83.4378 23.6047 83.5071 23.5337 83.5071 23.4461C83.5071 23.3585 83.4378 23.2875 83.3523 23.2875C83.2667 23.2875 83.1974 23.3585 83.1974 23.4461C83.1974 23.5337 83.2667 23.6047 83.3523 23.6047Z" fill="#005595"></path><path d="M83.0683 23.0006C83.1599 23.0006 83.2342 22.9245 83.2342 22.8307C83.2342 22.7368 83.1599 22.6608 83.0683 22.6608C82.9766 22.6608 82.9023 22.7368 82.9023 22.8307C82.9023 22.9245 82.9766 23.0006 83.0683 23.0006Z" fill="#005595"></path><path d="M82.8656 22.3663C82.9634 22.3663 83.0426 22.2852 83.0426 22.1851C83.0426 22.085 82.9634 22.0038 82.8656 22.0038C82.7678 22.0038 82.6886 22.085 82.6886 22.1851C82.6886 22.2852 82.7678 22.3663 82.8656 22.3663Z" fill="#005595"></path><path d="M82.7401 21.7131C82.8439 21.7131 82.9281 21.6269 82.9281 21.5206C82.9281 21.4142 82.8439 21.328 82.7401 21.328C82.6362 21.328 82.552 21.4142 82.552 21.5206C82.552 21.6269 82.6362 21.7131 82.7401 21.7131Z" fill="#005595"></path><path d="M82.6997 21.0222C82.7975 21.0222 82.8767 20.9411 82.8767 20.841C82.8767 20.7409 82.7975 20.6598 82.6997 20.6598C82.602 20.6598 82.5227 20.7409 82.5227 20.841C82.5227 20.9411 82.602 21.0222 82.6997 21.0222Z" fill="#005595"></path><path d="M82.7405 20.1852C82.7511 20.1852 82.7596 20.1765 82.7596 20.1658C82.7596 20.155 82.7511 20.1463 82.7405 20.1463C82.73 20.1463 82.7214 20.155 82.7214 20.1658C82.7214 20.1765 82.73 20.1852 82.7405 20.1852Z" fill="#005595"></path><path d="M87.1512 26.747C87.1617 26.747 87.1703 26.7383 87.1703 26.7276C87.1703 26.7168 87.1617 26.7081 87.1512 26.7081C87.1406 26.7081 87.1321 26.7168 87.1321 26.7276C87.1321 26.7383 87.1406 26.747 87.1512 26.747Z" fill="#005595"></path><path d="M86.5013 26.6288C86.5218 26.6288 86.5384 26.6119 86.5384 26.5911C86.5384 26.5702 86.5218 26.5533 86.5013 26.5533C86.4808 26.5533 86.4642 26.5702 86.4642 26.5911C86.4642 26.6119 86.4808 26.6288 86.5013 26.6288Z" fill="#005595"></path><path d="M85.8711 26.4438C85.9039 26.4438 85.9305 26.4168 85.9305 26.3834C85.9305 26.3501 85.9039 26.323 85.8711 26.323C85.8383 26.323 85.8118 26.3501 85.8118 26.3834C85.8118 26.4168 85.8383 26.4438 85.8711 26.4438Z" fill="#005595"></path><path d="M85.2695 26.1795C85.3122 26.1795 85.3469 26.144 85.3469 26.1003C85.3469 26.0565 85.3122 26.021 85.2695 26.021C85.2267 26.021 85.192 26.0565 85.192 26.1003C85.192 26.144 85.2267 26.1795 85.2695 26.1795Z" fill="#005595"></path><path d="M84.7017 25.8473C84.7547 25.8473 84.7976 25.8033 84.7976 25.7491C84.7976 25.6949 84.7547 25.651 84.7017 25.651C84.6488 25.651 84.6058 25.6949 84.6058 25.7491C84.6058 25.8033 84.6488 25.8473 84.7017 25.8473Z" fill="#005595"></path><path d="M84.1745 25.4508C84.2376 25.4508 84.2888 25.3984 84.2888 25.3338C84.2888 25.2692 84.2376 25.2168 84.1745 25.2168C84.1114 25.2168 84.0602 25.2692 84.0602 25.3338C84.0602 25.3984 84.1114 25.4508 84.1745 25.4508Z" fill="#005595"></path><path d="M83.6989 24.9941C83.7702 24.9941 83.8279 24.9349 83.8279 24.8619C83.8279 24.7889 83.7702 24.7298 83.6989 24.7298C83.6276 24.7298 83.5698 24.7889 83.5698 24.8619C83.5698 24.9349 83.6276 24.9941 83.6989 24.9941Z" fill="#005595"></path><path d="M83.2784 24.4881C83.3598 24.4881 83.4259 24.4205 83.4259 24.3371C83.4259 24.2537 83.3598 24.1861 83.2784 24.1861C83.1969 24.1861 83.1309 24.2537 83.1309 24.3371C83.1309 24.4205 83.1969 24.4881 83.2784 24.4881Z" fill="#005595"></path><path d="M82.9206 23.9293C83.0082 23.9293 83.0792 23.8567 83.0792 23.767C83.0792 23.6773 83.0082 23.6046 82.9206 23.6046C82.8331 23.6046 82.7621 23.6773 82.7621 23.767C82.7621 23.8567 82.8331 23.9293 82.9206 23.9293Z" fill="#005595"></path><path d="M82.6295 23.3328C82.7252 23.3328 82.8028 23.2534 82.8028 23.1554C82.8028 23.0574 82.7252 22.9779 82.6295 22.9779C82.5338 22.9779 82.4562 23.0574 82.4562 23.1554C82.4562 23.2534 82.5338 23.3328 82.6295 23.3328Z" fill="#005595"></path><path d="M82.4046 22.7061C82.5064 22.7061 82.589 22.6216 82.589 22.5173C82.589 22.4131 82.5064 22.3286 82.4046 22.3286C82.3028 22.3286 82.2202 22.4131 82.2202 22.5173C82.2202 22.6216 82.3028 22.7061 82.4046 22.7061Z" fill="#005595"></path><path d="M82.2571 22.0605C82.3671 22.0605 82.4562 21.9692 82.4562 21.8566C82.4562 21.744 82.3671 21.6527 82.2571 21.6527C82.1471 21.6527 82.058 21.744 82.058 21.8566C82.058 21.9692 82.1471 22.0605 82.2571 22.0605Z" fill="#005595"></path><path d="M82.1795 21.3922C82.2936 21.3922 82.386 21.2976 82.386 21.1808C82.386 21.064 82.2936 20.9694 82.1795 20.9694C82.0655 20.9694 81.973 21.064 81.973 21.1808C81.973 21.2976 82.0655 21.3922 82.1795 21.3922Z" fill="#005595"></path><path d="M82.1793 20.7202C82.2974 20.7202 82.3932 20.6221 82.3932 20.5012C82.3932 20.3803 82.2974 20.2822 82.1793 20.2822C82.0612 20.2822 81.9655 20.3803 81.9655 20.5012C81.9655 20.6221 82.0612 20.7202 82.1793 20.7202Z" fill="#005595"></path><path d="M82.2569 19.9877C82.3425 19.9877 82.4118 19.9167 82.4118 19.8292C82.4118 19.7416 82.3425 19.6706 82.2569 19.6706C82.1714 19.6706 82.1021 19.7416 82.1021 19.8292C82.1021 19.9167 82.1714 19.9877 82.2569 19.9877Z" fill="#005595"></path><path d="M84.809 26.4892C84.8254 26.4892 84.8387 26.4757 84.8387 26.459C84.8387 26.4423 84.8254 26.4288 84.809 26.4288C84.7926 26.4288 84.7793 26.4423 84.7793 26.459C84.7793 26.4757 84.7926 26.4892 84.809 26.4892Z" fill="#005595"></path><path d="M84.2559 26.1607C84.2945 26.1607 84.3259 26.1285 84.3259 26.0889C84.3259 26.0493 84.2945 26.0172 84.2559 26.0172C84.2172 26.0172 84.1858 26.0493 84.1858 26.0889C84.1858 26.1285 84.2172 26.1607 84.2559 26.1607Z" fill="#005595"></path><path d="M83.7393 25.7756C83.8004 25.7756 83.8499 25.7249 83.8499 25.6623C83.8499 25.5998 83.8004 25.549 83.7393 25.549C83.6782 25.549 83.6287 25.5998 83.6287 25.6623C83.6287 25.7249 83.6782 25.7756 83.7393 25.7756Z" fill="#005595"></path><path d="M83.271 25.3225C83.3463 25.3225 83.4074 25.26 83.4074 25.1828C83.4074 25.1057 83.3463 25.0432 83.271 25.0432C83.1956 25.0432 83.1345 25.1057 83.1345 25.1828C83.1345 25.26 83.1956 25.3225 83.271 25.3225Z" fill="#005595"></path><path d="M82.8544 24.809C82.9379 24.809 83.0056 24.7397 83.0056 24.6542C83.0056 24.5688 82.9379 24.4995 82.8544 24.4995C82.7709 24.4995 82.7032 24.5688 82.7032 24.6542C82.7032 24.7397 82.7709 24.809 82.8544 24.809Z" fill="#005595"></path><path d="M82.493 24.254C82.5846 24.254 82.6589 24.178 82.6589 24.0841C82.6589 23.9903 82.5846 23.9142 82.493 23.9142C82.4013 23.9142 82.327 23.9903 82.327 24.0841C82.327 24.178 82.4013 24.254 82.493 24.254Z" fill="#005595"></path><path d="M82.1906 23.6651C82.2904 23.6651 82.3713 23.5822 82.3713 23.4801C82.3713 23.3779 82.2904 23.2951 82.1906 23.2951C82.0908 23.2951 82.0099 23.3779 82.0099 23.4801C82.0099 23.5822 82.0908 23.6651 82.1906 23.6651Z" fill="#005595"></path><path d="M81.951 23.0421C82.0569 23.0421 82.1428 22.9542 82.1428 22.8458C82.1428 22.7374 82.0569 22.6495 81.951 22.6495C81.8451 22.6495 81.7593 22.7374 81.7593 22.8458C81.7593 22.9542 81.8451 23.0421 81.951 23.0421Z" fill="#005595"></path><path d="M81.7813 22.4003C81.8954 22.4003 81.9878 22.3056 81.9878 22.1889C81.9878 22.0721 81.8954 21.9774 81.7813 21.9774C81.6673 21.9774 81.5748 22.0721 81.5748 22.1889C81.5748 22.3056 81.6673 22.4003 81.7813 22.4003Z" fill="#005595"></path><path d="M81.6781 21.7396C81.7962 21.7396 81.892 21.6416 81.892 21.5206C81.892 21.3997 81.7962 21.3016 81.6781 21.3016C81.56 21.3016 81.4642 21.3997 81.4642 21.5206C81.4642 21.6416 81.56 21.7396 81.6781 21.7396Z" fill="#005595"></path><path d="M81.6414 21.0675C81.7636 21.0675 81.8627 20.9661 81.8627 20.841C81.8627 20.7159 81.7636 20.6145 81.6414 20.6145C81.5192 20.6145 81.4202 20.7159 81.4202 20.841C81.4202 20.9661 81.5192 21.0675 81.6414 21.0675Z" fill="#005595"></path><path d="M81.6778 20.3993C81.8041 20.3993 81.9065 20.2945 81.9065 20.1652C81.9065 20.0359 81.8041 19.9311 81.6778 19.9311C81.5516 19.9311 81.4492 20.0359 81.4492 20.1652C81.4492 20.2945 81.5516 20.3993 81.6778 20.3993Z" fill="#005595"></path><path d="M81.7815 19.7348C81.9119 19.7348 82.0175 19.6266 82.0175 19.4931C82.0175 19.3597 81.9119 19.2515 81.7815 19.2515C81.6512 19.2515 81.5455 19.3597 81.5455 19.4931C81.5455 19.6266 81.6512 19.7348 81.7815 19.7348Z" fill="#005595"></path><path d="M81.9507 18.991C82.0342 18.991 82.1019 18.9217 82.1019 18.8362C82.1019 18.7507 82.0342 18.6814 81.9507 18.6814C81.8673 18.6814 81.7996 18.7507 81.7996 18.8362C81.7996 18.9217 81.8673 18.991 81.9507 18.991Z" fill="#005595"></path><path d="M82.8399 25.5302C82.8562 25.5302 82.8695 25.5166 82.8695 25.5C82.8695 25.4833 82.8562 25.4698 82.8399 25.4698C82.8235 25.4698 82.8102 25.4833 82.8102 25.5C82.8102 25.5166 82.8235 25.5302 82.8399 25.5302Z" fill="#005595"></path><path d="M82.4266 25.0545C82.4714 25.0545 82.5077 25.0173 82.5077 24.9714C82.5077 24.9255 82.4714 24.8883 82.4266 24.8883C82.3818 24.8883 82.3455 24.9255 82.3455 24.9714C82.3455 25.0173 82.3818 25.0545 82.4266 25.0545Z" fill="#005595"></path><path d="M82.0615 24.5523C82.141 24.5523 82.2053 24.4864 82.2053 24.4051C82.2053 24.3237 82.141 24.2578 82.0615 24.2578C81.9821 24.2578 81.9177 24.3237 81.9177 24.4051C81.9177 24.4864 81.9821 24.5523 82.0615 24.5523Z" fill="#005595"></path><path d="M81.7555 23.9935C81.8574 23.9935 81.9399 23.909 81.9399 23.8048C81.9399 23.7005 81.8574 23.616 81.7555 23.616C81.6537 23.616 81.5712 23.7005 81.5712 23.8048C81.5712 23.909 81.6537 23.9935 81.7555 23.9935Z" fill="#005595"></path><path d="M81.5049 23.3781C81.6149 23.3781 81.704 23.2868 81.704 23.1742C81.704 23.0616 81.6149 22.9704 81.5049 22.9704C81.3949 22.9704 81.3058 23.0616 81.3058 23.1742C81.3058 23.2868 81.3949 23.3781 81.5049 23.3781Z" fill="#005595"></path><path d="M81.3129 22.7438C81.431 22.7438 81.5268 22.6458 81.5268 22.5249C81.5268 22.4039 81.431 22.3059 81.3129 22.3059C81.1948 22.3059 81.099 22.4039 81.099 22.5249C81.099 22.6458 81.1948 22.7438 81.3129 22.7438Z" fill="#005595"></path><path d="M81.1877 22.0831C81.3099 22.0831 81.4089 21.9817 81.4089 21.8566C81.4089 21.7315 81.3099 21.6301 81.1877 21.6301C81.0655 21.6301 80.9664 21.7315 80.9664 21.8566C80.9664 21.9817 81.0655 22.0831 81.1877 22.0831Z" fill="#005595"></path><path d="M81.1212 21.4187C81.2495 21.4187 81.3535 21.3122 81.3535 21.1808C81.3535 21.0495 81.2495 20.943 81.1212 20.943C80.9929 20.943 80.8889 21.0495 80.8889 21.1808C80.8889 21.3122 80.9929 21.4187 81.1212 21.4187Z" fill="#005595"></path><path d="M81.1212 20.7466C81.2535 20.7466 81.3608 20.6367 81.3608 20.5012C81.3608 20.3657 81.2535 20.2558 81.1212 20.2558C80.9888 20.2558 80.8815 20.3657 80.8815 20.5012C80.8815 20.6367 80.9888 20.7466 81.1212 20.7466Z" fill="#005595"></path><path d="M81.1876 20.0746C81.322 20.0746 81.431 19.963 81.431 19.8254C81.431 19.6878 81.322 19.5762 81.1876 19.5762C81.0532 19.5762 80.9442 19.6878 80.9442 19.8254C80.9442 19.963 81.0532 20.0746 81.1876 20.0746Z" fill="#005595"></path><path d="M81.3132 19.4139C81.4497 19.4139 81.5603 19.3006 81.5603 19.1609C81.5603 19.0212 81.4497 18.908 81.3132 18.908C81.1768 18.908 81.0662 19.0212 81.0662 19.1609C81.0662 19.3006 81.1768 19.4139 81.3132 19.4139Z" fill="#005595"></path><path d="M81.5047 18.7645C81.6431 18.7645 81.7554 18.6495 81.7554 18.5077C81.7554 18.366 81.6431 18.251 81.5047 18.251C81.3662 18.251 81.2539 18.366 81.2539 18.5077C81.2539 18.6495 81.3662 18.7645 81.5047 18.7645Z" fill="#005595"></path><path d="M81.7555 18.066C81.8553 18.066 81.9362 17.9832 81.9362 17.881C81.9362 17.7788 81.8553 17.696 81.7555 17.696C81.6557 17.696 81.5748 17.7788 81.5748 17.881C81.5748 17.9832 81.6557 18.066 81.7555 18.066Z" fill="#005595"></path><path d="M82.062 17.2929C82.0705 17.2929 82.0773 17.2859 82.0773 17.2773C82.0773 17.2687 82.0705 17.2618 82.062 17.2618C82.0536 17.2618 82.0468 17.2687 82.0468 17.2773C82.0468 17.2859 82.0536 17.2929 82.062 17.2929Z" fill="#005595"></path><path d="M81.3209 24.1341C81.3253 24.1341 81.3288 24.1305 81.3288 24.1261C81.3288 24.1217 81.3253 24.1181 81.3209 24.1181C81.3165 24.1181 81.313 24.1217 81.313 24.1261C81.313 24.1305 81.3165 24.1341 81.3209 24.1341Z" fill="#005595"></path><path d="M81.0588 23.5442C81.0834 23.5442 81.1033 23.5239 81.1033 23.4989C81.1033 23.4739 81.0834 23.4536 81.0588 23.4536C81.0342 23.4536 81.0143 23.4739 81.0143 23.4989C81.0143 23.5239 81.0342 23.5442 81.0588 23.5442Z" fill="#005595"></path><path d="M80.8521 22.9666C80.9132 22.9666 80.9627 22.9159 80.9627 22.8533C80.9627 22.7908 80.9132 22.7401 80.8521 22.7401C80.791 22.7401 80.7415 22.7908 80.7415 22.8533C80.7415 22.9159 80.791 22.9666 80.8521 22.9666Z" fill="#005595"></path><path d="M80.7043 22.3738C80.8021 22.3738 80.8813 22.2927 80.8813 22.1926C80.8813 22.0925 80.8021 22.0114 80.7043 22.0114C80.6066 22.0114 80.5273 22.0925 80.5273 22.1926C80.5273 22.2927 80.6066 22.3738 80.7043 22.3738Z" fill="#005595"></path><path d="M80.616 21.7547C80.7422 21.7547 80.8446 21.6499 80.8446 21.5206C80.8446 21.3913 80.7422 21.2865 80.616 21.2865C80.4897 21.2865 80.3873 21.3913 80.3873 21.5206C80.3873 21.6499 80.4897 21.7547 80.616 21.7547Z" fill="#005595"></path><path d="M80.5867 21.094C80.7231 21.094 80.8337 20.9807 80.8337 20.841C80.8337 20.7013 80.7231 20.588 80.5867 20.588C80.4502 20.588 80.3396 20.7013 80.3396 20.841C80.3396 20.9807 80.4502 21.094 80.5867 21.094Z" fill="#005595"></path><path d="M80.6161 20.4219C80.7567 20.4219 80.8706 20.3053 80.8706 20.1614C80.8706 20.0175 80.7567 19.9009 80.6161 19.9009C80.4756 19.9009 80.3617 20.0175 80.3617 20.1614C80.3617 20.3053 80.4756 20.4219 80.6161 20.4219Z" fill="#005595"></path><path d="M80.7045 19.7536C80.8471 19.7536 80.9627 19.6353 80.9627 19.4894C80.9627 19.3434 80.8471 19.2251 80.7045 19.2251C80.562 19.2251 80.4464 19.3434 80.4464 19.4894C80.4464 19.6353 80.562 19.7536 80.7045 19.7536Z" fill="#005595"></path><path d="M80.852 19.0967C80.9966 19.0967 81.1138 18.9767 81.1138 18.8286C81.1138 18.6806 80.9966 18.5606 80.852 18.5606C80.7074 18.5606 80.5902 18.6806 80.5902 18.8286C80.5902 18.9767 80.7074 19.0967 80.852 19.0967Z" fill="#005595"></path><path d="M81.0585 18.4548C81.2051 18.4548 81.324 18.3331 81.324 18.183C81.324 18.0329 81.2051 17.9112 81.0585 17.9112C80.9118 17.9112 80.793 18.0329 80.793 18.183C80.793 18.3331 80.9118 18.4548 81.0585 18.4548Z" fill="#005595"></path><path d="M81.3204 17.8282C81.4671 17.8282 81.5859 17.7065 81.5859 17.5563C81.5859 17.4062 81.4671 17.2845 81.3204 17.2845C81.1738 17.2845 81.0549 17.4062 81.0549 17.5563C81.0549 17.7065 81.1738 17.8282 81.3204 17.8282Z" fill="#005595"></path><path d="M81.6339 17.209C81.7683 17.209 81.8773 17.0974 81.8773 16.9598C81.8773 16.8222 81.7683 16.7106 81.6339 16.7106C81.4995 16.7106 81.3905 16.8222 81.3905 16.9598C81.3905 17.0974 81.4995 17.209 81.6339 17.209Z" fill="#005595"></path><path d="M81.9988 16.4576C82.0335 16.4576 82.0615 16.4289 82.0615 16.3934C82.0615 16.358 82.0335 16.3293 81.9988 16.3293C81.9642 16.3293 81.9362 16.358 81.9362 16.3934C81.9362 16.4289 81.9642 16.4576 81.9988 16.4576Z" fill="#005595"></path><path d="M80.1221 19.9349C80.1811 19.9349 80.229 19.8858 80.229 19.8254C80.229 19.7649 80.1811 19.7159 80.1221 19.7159C80.063 19.7159 80.0151 19.7649 80.0151 19.8254C80.0151 19.8858 80.063 19.9349 80.1221 19.9349Z" fill="#005595"></path><path d="M80.2325 19.3346C80.3282 19.3346 80.4058 19.2551 80.4058 19.1571C80.4058 19.0591 80.3282 18.9797 80.2325 18.9797C80.1368 18.9797 80.0592 19.0591 80.0592 19.1571C80.0592 19.2551 80.1368 19.3346 80.2325 19.3346Z" fill="#005595"></path><path d="M80.3948 18.7229C80.517 18.7229 80.6161 18.6215 80.6161 18.4964C80.6161 18.3713 80.517 18.2699 80.3948 18.2699C80.2726 18.2699 80.1736 18.3713 80.1736 18.4964C80.1736 18.6215 80.2726 18.7229 80.3948 18.7229Z" fill="#005595"></path><path d="M80.616 18.1113C80.7545 18.1113 80.8667 17.9964 80.8667 17.8546C80.8667 17.7128 80.7545 17.5978 80.616 17.5978C80.4775 17.5978 80.3652 17.7128 80.3652 17.8546C80.3652 17.9964 80.4775 18.1113 80.616 18.1113Z" fill="#005595"></path><path d="M80.8855 17.5034C81.0301 17.5034 81.1473 17.3834 81.1473 17.2353C81.1473 17.0873 81.0301 16.9673 80.8855 16.9673C80.7409 16.9673 80.6237 17.0873 80.6237 17.2353C80.6237 17.3834 80.7409 17.5034 80.8855 17.5034Z" fill="#005595"></path><path d="M81.2024 16.922C81.3531 16.922 81.4753 16.7969 81.4753 16.6426C81.4753 16.4883 81.3531 16.3633 81.2024 16.3633C81.0517 16.3633 80.9296 16.4883 80.9296 16.6426C80.9296 16.7969 81.0517 16.922 81.2024 16.922Z" fill="#005595"></path><path d="M81.5712 16.3519C81.7199 16.3519 81.8404 16.2285 81.8404 16.0763C81.8404 15.9241 81.7199 15.8007 81.5712 15.8007C81.4225 15.8007 81.302 15.9241 81.302 16.0763C81.302 16.2285 81.4225 16.3519 81.5712 16.3519Z" fill="#005595"></path><path d="M81.984 15.7252C82.0818 15.7252 82.161 15.644 82.161 15.544C82.161 15.4439 82.0818 15.3627 81.984 15.3627C81.8863 15.3627 81.807 15.4439 81.807 15.544C81.807 15.644 81.8863 15.7252 81.984 15.7252Z" fill="#005595"></path><path d="M82.4383 15.0654C82.4467 15.0654 82.4535 15.0584 82.4535 15.0498C82.4535 15.0412 82.4467 15.0343 82.4383 15.0343C82.4298 15.0343 82.423 15.0412 82.423 15.0498C82.423 15.0584 82.4298 15.0654 82.4383 15.0654Z" fill="#005595"></path><path d="M80.4516 16.9083L80.4479 16.9096L80.449 16.9133L80.4528 16.912L80.4516 16.9083Z" fill="#005595"></path><path d="M80.7752 16.3301C80.7796 16.3301 80.7832 16.3265 80.7832 16.3221C80.7832 16.3177 80.7796 16.3142 80.7752 16.3142C80.7709 16.3142 80.7673 16.3177 80.7673 16.3221C80.7673 16.3265 80.7709 16.3301 80.7752 16.3301Z" fill="#005595"></path><path d="M81.144 15.7675C81.1484 15.7675 81.1519 15.764 81.1519 15.7596C81.1519 15.7552 81.1484 15.7516 81.144 15.7516C81.1396 15.7516 81.1361 15.7552 81.1361 15.7596C81.1361 15.764 81.1396 15.7675 81.144 15.7675Z" fill="#005595"></path><path d="M81.5569 15.2314C81.5612 15.2314 81.5648 15.2278 81.5648 15.2234C81.5648 15.219 81.5612 15.2155 81.5569 15.2155C81.5525 15.2155 81.549 15.219 81.549 15.2234C81.549 15.2278 81.5525 15.2314 81.5569 15.2314Z" fill="#005595"></path></g><path d="M91.0441 12.0591L92.899 9.51446C87.187 5.44446 78.3923 9.01231 78.3923 17.2958C78.3923 18.3831 78.5509 19.4289 78.8533 20.3992C78.5988 13.7619 85.2806 9.32568 91.0441 12.0591Z" fill="#F6871F"></path><path d="M93.3602 7L96.0262 14.3924L88.5996 13.8941L93.3602 7Z" fill="#F6871F"></path></g><defs><clipPath id="clip0_6359_1273"><rect width="118" height="25.3374" fill="white" transform="translate(0 7)"></rect></clipPath></defs></svg>